<?xml version="1.0" encoding="UTF-8"?>
<svg xmlns="http://www.w3.org/2000/svg" id="Layer_1" data-name="Layer 1" viewBox="0 0 24 24">
  <path d="m6.5,0C2.916,0,0,2.916,0,6.5s2.916,6.5,6.5,6.5,6.5-2.916,6.5-6.5S10.084,0,6.5,0Zm0,12c-3.033,0-5.5-2.468-5.5-5.5S3.467,1,6.5,1s5.5,2.468,5.5,5.5-2.467,5.5-5.5,5.5Zm17.5-5.5v3c0,.276-.224.5-.5.5s-.5-.224-.5-.5v-3c0-1.379-1.122-2.5-2.5-2.5h-4.199l2.06,2.154c.191.2.184.517-.016.707-.097.093-.222.139-.346.139-.132,0-.263-.052-.361-.154l-2.218-2.32c-.268-.268-.42-.635-.42-1.025s.152-.758.428-1.033L17.639.154c.19-.2.506-.207.707-.016.199.19.207.507.016.707l-2.06,2.154h4.198c1.93,0,3.5,1.57,3.5,3.5Zm-1.516,6.61l-3-1.716c-.918-.524-2.06-.525-2.978.002l-2.996,1.713c-.932.532-1.511,1.53-1.511,2.604v3.636c0,1.074.579,2.072,1.511,2.604l2.996,1.715c.46.263.975.394,1.49.394s1.029-.131,1.488-.394l3-1.715c.932-.532,1.511-1.53,1.511-2.604v-3.636c0-1.074-.579-2.072-1.511-2.604Zm-8.478.867l2.996-1.713c.307-.176.65-.264.994-.264s.686.088.992.262l3,1.716c.195.111.356.26.5.424l-4.488,2.524-4.492-2.526c.143-.164.304-.312.498-.424Zm0,7.107c-.621-.354-1.007-1.02-1.007-1.735v-3.636c0-.144.026-.283.056-.42l4.444,2.499v5.206c-.172-.044-.34-.109-.497-.198l-2.996-1.715Zm8.989-1.735c0,.716-.386,1.381-1.007,1.736l-3,1.714c-.155.089-.32.154-.489.198v-5.205l4.44-2.496c.03.137.056.275.056.418v3.636Zm-13.457-11.18c0,1.009-.8,1.83-1.783,1.83h-.756v.5c0,.276-.224.5-.5.5s-.5-.224-.5-.5v-.5h-.757c-.817,0-1.528-.567-1.728-1.381-.066-.268.098-.539.366-.604.268-.063.539.098.605.366.09.364.401.619.757.619h2.513c.432,0,.783-.372.783-.83,0-.371-.235-.7-.572-.8l-3.094-.775c-.779-.23-1.309-.954-1.309-1.765,0-1.009.8-1.83,1.783-1.83h.653v-.5c0-.276.224-.5.5-.5s.5.224.5.5v.5h.757c.817,0,1.528.567,1.728,1.381.066.268-.098.539-.366.604-.266.066-.539-.098-.605-.366-.09-.364-.401-.619-.757-.619h-2.411c-.432,0-.783.372-.783.83,0,.371.235.7.572.8l3.094.775c.779.23,1.309.954,1.309,1.765Zm-.959,11.305c.268.268.42.635.42,1.025s-.152.758-.428,1.033l-2.21,2.312c-.098.103-.229.154-.361.154-.125,0-.249-.046-.346-.139-.199-.19-.207-.507-.016-.707l2.06-2.154H3.5c-1.93,0-3.5-1.57-3.5-3.5v-3c0-.276.224-.5.5-.5s.5.224.5.5v3c0,1.379,1.122,2.5,2.5,2.5h4.199l-2.06-2.154c-.191-.2-.184-.517.016-.707.201-.191.517-.184.707.016l2.218,2.32Z"/>
</svg>
